<svg xmlns="http://www.w3.org/2000/svg" xmlns:xlink="http://www.w3.org/1999/xlink" contentStyleType="text/css" data-diagram-type="CLASS" height="1088px" preserveAspectRatio="none" style="width:622px;height:1088px;background:#FFFFFF;" version="1.1" viewBox="0 0 622 1088" width="622px" zoomAndPan="magnify"><defs/><g><!--class AudioDevice--><g class="entity" data-entity="AudioDevice" data-source-line="1" data-uid="ent0002" id="entity_AudioDevice"><rect fill="#F1F1F1" height="129.4844" rx="2.5" ry="2.5" style="stroke:#181818;stroke-width:0.5;" width="222.3623" x="393.56" y="352"/><ellipse cx="456.6557" cy="368" fill="#ADD1B2" rx="11" ry="11" style="stroke:#181818;stroke-width:1;"/><path d="M459.6245,373.6406 Q459.0463,373.9375 458.4057,374.0781 Q457.7651,374.2344 457.062,374.2344 Q454.562,374.2344 453.2338,372.5937 Q451.9213,370.9375 451.9213,367.8125 Q451.9213,364.6875 453.2338,363.0312 Q454.562,361.375 457.062,361.375 Q457.7651,361.375 458.4057,361.5312 Q459.062,361.6875 459.6245,361.9844 L459.6245,364.7031 Q458.9995,364.125 458.4057,363.8594 Q457.812,363.5781 457.187,363.5781 Q455.8432,363.5781 455.1557,364.6562 Q454.4682,365.7187 454.4682,367.8125 Q454.4682,369.9062 455.1557,370.9844 Q455.8432,372.0469 457.187,372.0469 Q457.812,372.0469 458.4057,371.7812 Q458.9995,371.5 459.6245,370.9219 L459.6245,373.6406 Z " fill="#000000"/><text fill="#000000" font-family="sans-serif" font-size="14" lengthAdjust="spacing" textLength="87.6709" x="477.1557" y="372.8467">AudioDevice</text><line style="stroke:#181818;stroke-width:0.5;" x1="394.56" x2="614.9223" y1="384" y2="384"/><rect fill="none" height="6" style="stroke:#C82930;stroke-width:1;" width="6" x="401.56" y="394.6484"/><text fill="#000000" font-family="sans-serif" font-size="14" lengthAdjust="spacing" textLength="122.6709" x="413.56" y="400.9951">_volume: number</text><rect fill="none" height="6" style="stroke:#C82930;stroke-width:1;" width="6" x="401.56" y="410.9453"/><text fill="#000000" font-family="sans-serif" font-size="14" lengthAdjust="spacing" textLength="143.6436" x="413.56" y="417.292">_deviceName: string</text><line style="stroke:#181818;stroke-width:0.5;" x1="394.56" x2="614.9223" y1="424.5937" y2="424.5937"/><ellipse cx="404.56" cy="438.2422" fill="#84BE84" rx="3" ry="3" style="stroke:#038048;stroke-width:1;"/><text fill="#000000" font-family="sans-serif" font-size="14" lengthAdjust="spacing" textLength="196.3623" x="413.56" y="441.5889">setVolume(v: number): void</text><ellipse cx="404.56" cy="454.5391" fill="#84BE84" rx="3" ry="3" style="stroke:#038048;stroke-width:1;"/><text fill="#000000" font-family="sans-serif" font-size="14" lengthAdjust="spacing" textLength="150.876" x="413.56" y="457.8857">getVolume(): number</text><ellipse cx="404.56" cy="470.8359" fill="#84BE84" rx="3" ry="3" style="stroke:#038048;stroke-width:1;"/><text fill="#000000" font-family="sans-serif" font-size="14" lengthAdjust="spacing" textLength="124.5713" x="413.56" y="474.1826">getName(): string</text></g><!--class MediaFile--><g class="entity" data-entity="MediaFile" data-source-line="9" data-uid="ent0003" id="entity_MediaFile"><rect fill="#F1F1F1" height="129.4844" rx="2.5" ry="2.5" style="stroke:#181818;stroke-width:0.5;" width="148.7188" x="108.38" y="952.39"/><ellipse cx="145.9815" cy="968.39" fill="#ADD1B2" rx="11" ry="11" style="stroke:#181818;stroke-width:1;"/><path d="M148.9503,974.0306 Q148.3721,974.3275 147.7315,974.4681 Q147.0909,974.6244 146.3878,974.6244 Q143.8878,974.6244 142.5596,972.9837 Q141.2471,971.3275 141.2471,968.2025 Q141.2471,965.0775 142.5596,963.4212 Q143.8878,961.765 146.3878,961.765 Q147.0909,961.765 147.7315,961.9212 Q148.3878,962.0775 148.9503,962.3744 L148.9503,965.0931 Q148.3253,964.515 147.7315,964.2494 Q147.1378,963.9681 146.5128,963.9681 Q145.169,963.9681 144.4815,965.0462 Q143.794,966.1087 143.794,968.2025 Q143.794,970.2962 144.4815,971.3744 Q145.169,972.4369 146.5128,972.4369 Q147.1378,972.4369 147.7315,972.1712 Q148.3253,971.89 148.9503,971.3119 L148.9503,974.0306 Z " fill="#000000"/><text fill="#000000" font-family="sans-serif" font-size="14" lengthAdjust="spacing" textLength="66.4932" x="165.0041" y="973.2367">MediaFile</text><line style="stroke:#181818;stroke-width:0.5;" x1="109.38" x2="256.0988" y1="984.39" y2="984.39"/><ellipse cx="119.38" cy="998.0384" fill="none" rx="3" ry="3" style="stroke:#038048;stroke-width:1;"/><text fill="#000000" font-family="sans-serif" font-size="14" lengthAdjust="spacing" textLength="89.0586" x="128.38" y="1001.3851">name: string</text><ellipse cx="119.38" cy="1014.3353" fill="none" rx="3" ry="3" style="stroke:#038048;stroke-width:1;"/><text fill="#000000" font-family="sans-serif" font-size="14" lengthAdjust="spacing" textLength="117.8516" x="128.38" y="1017.682">extension: string</text><ellipse cx="119.38" cy="1030.6322" fill="none" rx="3" ry="3" style="stroke:#038048;stroke-width:1;"/><text fill="#000000" font-family="sans-serif" font-size="14" lengthAdjust="spacing" textLength="90.9521" x="128.38" y="1033.9789">size: number</text><ellipse cx="119.38" cy="1046.9291" fill="none" rx="3" ry="3" style="stroke:#038048;stroke-width:1;"/><text fill="#000000" font-family="sans-serif" font-size="14" lengthAdjust="spacing" textLength="122.7188" x="128.38" y="1050.2757">duration: number</text><line style="stroke:#181818;stroke-width:0.5;" x1="109.38" x2="256.0988" y1="1057.5775" y2="1057.5775"/><ellipse cx="119.38" cy="1071.2259" fill="#84BE84" rx="3" ry="3" style="stroke:#038048;stroke-width:1;"/><text fill="#000000" font-family="sans-serif" font-size="14" lengthAdjust="spacing" textLength="86.5361" x="128.38" y="1074.5726">info(): string</text></g><!--class MemoryCard--><g class="entity" data-entity="MemoryCard" data-source-line="17" data-uid="ent0004" id="entity_MemoryCard"><rect fill="#F1F1F1" height="227.2656" rx="2.5" ry="2.5" style="stroke:#181818;stroke-width:0.5;" width="343.0986" x="11.19" y="648.12"/><ellipse cx="133.5225" cy="664.12" fill="#ADD1B2" rx="11" ry="11" style="stroke:#181818;stroke-width:1;"/><path d="M136.4913,669.7606 Q135.9131,670.0575 135.2725,670.1981 Q134.6319,670.3544 133.9288,670.3544 Q131.4288,670.3544 130.1006,668.7137 Q128.7881,667.0575 128.7881,663.9325 Q128.7881,660.8075 130.1006,659.1512 Q131.4288,657.495 133.9288,657.495 Q134.6319,657.495 135.2725,657.6512 Q135.9288,657.8075 136.4913,658.1044 L136.4913,660.8231 Q135.8663,660.245 135.2725,659.9794 Q134.6788,659.6981 134.0538,659.6981 Q132.71,659.6981 132.0225,660.7762 Q131.335,661.8387 131.335,663.9325 Q131.335,666.0262 132.0225,667.1044 Q132.71,668.1669 134.0538,668.1669 Q134.6788,668.1669 135.2725,667.9012 Q135.8663,667.62 136.4913,667.0419 L136.4913,669.7606 Z " fill="#000000"/><text fill="#000000" font-family="sans-serif" font-size="14" lengthAdjust="spacing" textLength="89.9336" x="154.0225" y="668.9667">MemoryCard</text><line style="stroke:#181818;stroke-width:0.5;" x1="12.19" x2="353.2886" y1="680.12" y2="680.12"/><ellipse cx="22.19" cy="693.7684" fill="none" rx="3" ry="3" style="stroke:#038048;stroke-width:1;"/><text fill="#000000" font-family="sans-serif" font-size="14" lengthAdjust="spacing" textLength="80.6299" x="31.19" y="697.1151">type: string</text><ellipse cx="22.19" cy="710.0653" fill="none" rx="3" ry="3" style="stroke:#038048;stroke-width:1;"/><text fill="#000000" font-family="sans-serif" font-size="14" lengthAdjust="spacing" textLength="122.9102" x="31.19" y="713.412">capacity: number</text><rect fill="none" height="6" style="stroke:#C82930;stroke-width:1;" width="6" x="19.19" y="723.3622"/><text fill="#000000" font-family="sans-serif" font-size="14" lengthAdjust="spacing" textLength="215.5576" x="31.19" y="729.7089">_connectedTo: AudioController</text><rect fill="none" height="6" style="stroke:#C82930;stroke-width:1;" width="6" x="19.19" y="739.6591"/><text fill="#000000" font-family="sans-serif" font-size="14" lengthAdjust="spacing" textLength="122.1992" x="31.19" y="746.0057">_files: MediaFile[]</text><rect fill="none" height="6" style="stroke:#C82930;stroke-width:1;" width="6" x="19.19" y="755.9559"/><text fill="#000000" font-family="sans-serif" font-size="14" lengthAdjust="spacing" textLength="147.1367" x="31.19" y="762.3026">_usedSpace: number</text><line style="stroke:#181818;stroke-width:0.5;" x1="12.19" x2="353.2886" y1="769.6044" y2="769.6044"/><ellipse cx="22.19" cy="783.2528" fill="#84BE84" rx="3" ry="3" style="stroke:#038048;stroke-width:1;"/><text fill="#000000" font-family="sans-serif" font-size="14" lengthAdjust="spacing" textLength="175.4238" x="31.19" y="786.5995">getUsedSpace(): number</text><ellipse cx="22.19" cy="799.5497" fill="#84BE84" rx="3" ry="3" style="stroke:#038048;stroke-width:1;"/><text fill="#000000" font-family="sans-serif" font-size="14" lengthAdjust="spacing" textLength="152.2363" x="31.19" y="802.8964">getFiles(): MediaFile[]</text><ellipse cx="22.19" cy="815.8466" fill="#84BE84" rx="3" ry="3" style="stroke:#038048;stroke-width:1;"/><text fill="#000000" font-family="sans-serif" font-size="14" lengthAdjust="spacing" textLength="296.6045" x="31.19" y="819.1932">getConnectedController(): AudioController</text><ellipse cx="22.19" cy="832.1434" fill="#84BE84" rx="3" ry="3" style="stroke:#038048;stroke-width:1;"/><text fill="#000000" font-family="sans-serif" font-size="14" lengthAdjust="spacing" textLength="317.0986" x="31.19" y="835.4901">connect(controller: AudioController): boolean</text><ellipse cx="22.19" cy="848.4403" fill="#84BE84" rx="3" ry="3" style="stroke:#038048;stroke-width:1;"/><text fill="#000000" font-family="sans-serif" font-size="14" lengthAdjust="spacing" textLength="125.5967" x="31.19" y="851.787">disconnect(): void</text><ellipse cx="22.19" cy="864.7372" fill="#84BE84" rx="3" ry="3" style="stroke:#038048;stroke-width:1;"/><text fill="#000000" font-family="sans-serif" font-size="14" lengthAdjust="spacing" textLength="197.4971" x="31.19" y="868.0839">addFile(file: MediaFile): void</text></g><!--class AudioDriver--><g class="entity" data-entity="AudioDriver" data-source-line="31" data-uid="ent0005" id="entity_AudioDriver"><rect fill="#F1F1F1" height="178.375" rx="2.5" ry="2.5" style="stroke:#181818;stroke-width:0.5;" width="407.9443" x="103.77" y="7"/><ellipse cx="262.0561" cy="23" fill="#ADD1B2" rx="11" ry="11" style="stroke:#181818;stroke-width:1;"/><path d="M265.0249,28.6406 Q264.4468,28.9375 263.8061,29.0781 Q263.1655,29.2344 262.4624,29.2344 Q259.9624,29.2344 258.6343,27.5938 Q257.3218,25.9375 257.3218,22.8125 Q257.3218,19.6875 258.6343,18.0313 Q259.9624,16.375 262.4624,16.375 Q263.1655,16.375 263.8061,16.5313 Q264.4624,16.6875 265.0249,16.9844 L265.0249,19.7031 Q264.3999,19.125 263.8061,18.8594 Q263.2124,18.5781 262.5874,18.5781 Q261.2436,18.5781 260.5561,19.6563 Q259.8686,20.7188 259.8686,22.8125 Q259.8686,24.9063 260.5561,25.9844 Q261.2436,27.0469 262.5874,27.0469 Q263.2124,27.0469 263.8061,26.7813 Q264.3999,26.5 265.0249,25.9219 L265.0249,28.6406 Z " fill="#000000"/><text fill="#000000" font-family="sans-serif" font-size="14" lengthAdjust="spacing" textLength="82.8721" x="282.5561" y="27.8467">AudioDriver</text><line style="stroke:#181818;stroke-width:0.5;" x1="104.77" x2="510.7143" y1="39" y2="39"/><rect fill="none" height="6" style="stroke:#C82930;stroke-width:1;" width="6" x="111.77" y="49.6484"/><text fill="#000000" font-family="sans-serif" font-size="14" lengthAdjust="spacing" textLength="197.5791" x="123.77" y="55.9951">_channelVolumes: number[]</text><rect fill="none" height="6" style="stroke:#C82930;stroke-width:1;" width="6" x="111.77" y="65.9453"/><text fill="#000000" font-family="sans-serif" font-size="14" lengthAdjust="spacing" textLength="215.5576" x="123.77" y="72.292">_connectedTo: AudioController</text><rect fill="none" height="6" style="stroke:#C82930;stroke-width:1;" width="6" x="111.77" y="82.2422"/><text fill="#000000" font-family="sans-serif" font-size="14" lengthAdjust="spacing" textLength="167.5898" x="123.77" y="88.5889">_totalChannels: number</text><line style="stroke:#181818;stroke-width:0.5;" x1="104.77" x2="510.7143" y1="95.8906" y2="95.8906"/><ellipse cx="114.77" cy="109.5391" fill="#84BE84" rx="3" ry="3" style="stroke:#038048;stroke-width:1;"/><text fill="#000000" font-family="sans-serif" font-size="14" lengthAdjust="spacing" textLength="381.9443" x="123.77" y="112.8857">setChannelVolume(channel: number, v: number): void</text><ellipse cx="114.77" cy="125.8359" fill="#84BE84" rx="3" ry="3" style="stroke:#038048;stroke-width:1;"/><text fill="#000000" font-family="sans-serif" font-size="14" lengthAdjust="spacing" textLength="327.5576" x="123.77" y="129.1826">getChannelVolume(channel: number): number</text><ellipse cx="114.77" cy="142.1328" fill="#84BE84" rx="3" ry="3" style="stroke:#038048;stroke-width:1;"/><text fill="#000000" font-family="sans-serif" font-size="14" lengthAdjust="spacing" textLength="290.7529" x="123.77" y="145.4795">connect(controller: AudioController): void</text><ellipse cx="114.77" cy="158.4297" fill="#84BE84" rx="3" ry="3" style="stroke:#038048;stroke-width:1;"/><text fill="#000000" font-family="sans-serif" font-size="14" lengthAdjust="spacing" textLength="296.6045" x="123.77" y="161.7764">getConnectedController(): AudioController</text><ellipse cx="114.77" cy="174.7266" fill="#84BE84" rx="3" ry="3" style="stroke:#038048;stroke-width:1;"/><text fill="#000000" font-family="sans-serif" font-size="14" lengthAdjust="spacing" textLength="89.4893" x="123.77" y="178.0732">info(): object</text></g><!--class AudioController--><g class="entity" data-entity="AudioController" data-source-line="42" data-uid="ent0006" id="entity_AudioController"><rect fill="#F1F1F1" height="308.75" rx="2.5" ry="2.5" style="stroke:#181818;stroke-width:0.5;" width="351.4795" x="7" y="262.37"/><ellipse cx="124.0073" cy="278.37" fill="#ADD1B2" rx="11" ry="11" style="stroke:#181818;stroke-width:1;"/><path d="M126.9761,284.0106 Q126.3979,284.3075 125.7573,284.4481 Q125.1167,284.6044 124.4136,284.6044 Q121.9136,284.6044 120.5854,282.9637 Q119.2729,281.3075 119.2729,278.1825 Q119.2729,275.0575 120.5854,273.4012 Q121.9136,271.745 124.4136,271.745 Q125.1167,271.745 125.7573,271.9012 Q126.4136,272.0575 126.9761,272.3544 L126.9761,275.0731 Q126.3511,274.495 125.7573,274.2294 Q125.1636,273.9481 124.5386,273.9481 Q123.1948,273.9481 122.5073,275.0262 Q121.8198,276.0887 121.8198,278.1825 Q121.8198,280.2762 122.5073,281.3544 Q123.1948,282.4169 124.5386,282.4169 Q125.1636,282.4169 125.7573,282.1512 Q126.3511,281.87 126.9761,281.2919 L126.9761,284.0106 Z " fill="#000000"/><text fill="#000000" font-family="sans-serif" font-size="14" lengthAdjust="spacing" textLength="108.9648" x="144.5073" y="283.2167">AudioController</text><line style="stroke:#181818;stroke-width:0.5;" x1="8" x2="357.4795" y1="294.37" y2="294.37"/><rect fill="none" height="6" style="stroke:#C82930;stroke-width:1;" width="6" x="15" y="305.0184"/><text fill="#000000" font-family="sans-serif" font-size="14" lengthAdjust="spacing" textLength="197.5928" x="27" y="311.3651">_memoryCard: MemoryCard</text><rect fill="none" height="6" style="stroke:#C82930;stroke-width:1;" width="6" x="15" y="321.3153"/><text fill="#000000" font-family="sans-serif" font-size="14" lengthAdjust="spacing" textLength="158.4434" x="27" y="327.662">_drivers: AudioDriver[]</text><rect fill="none" height="6" style="stroke:#C82930;stroke-width:1;" width="6" x="15" y="337.6122"/><text fill="#000000" font-family="sans-serif" font-size="14" lengthAdjust="spacing" textLength="185.0967" x="27" y="343.9589">_currentFileIndex: number</text><rect fill="none" height="6" style="stroke:#C82930;stroke-width:1;" width="6" x="15" y="353.9091"/><text fill="#000000" font-family="sans-serif" font-size="14" lengthAdjust="spacing" textLength="156.5566" x="27" y="360.2557">_currentTime: number</text><rect fill="none" height="6" style="stroke:#C82930;stroke-width:1;" width="6" x="15" y="370.2059"/><text fill="#000000" font-family="sans-serif" font-size="14" lengthAdjust="spacing" textLength="134.1689" x="27" y="376.5526">_isPlaying: boolean</text><rect fill="none" height="6" style="stroke:#C82930;stroke-width:1;" width="6" x="15" y="386.5028"/><text fill="#000000" font-family="sans-serif" font-size="14" lengthAdjust="spacing" textLength="94.2607" x="27" y="392.8495">_playTimeout</text><rect fill="none" height="6" style="stroke:#C82930;stroke-width:1;" width="6" x="15" y="402.7997"/><text fill="#000000" font-family="sans-serif" font-size="14" lengthAdjust="spacing" textLength="132.8428" x="27" y="409.1464">_autoPlay: boolean</text><line style="stroke:#181818;stroke-width:0.5;" x1="8" x2="357.4795" y1="416.4481" y2="416.4481"/><ellipse cx="18" cy="430.0966" fill="#84BE84" rx="3" ry="3" style="stroke:#038048;stroke-width:1;"/><text fill="#000000" font-family="sans-serif" font-size="14" lengthAdjust="spacing" textLength="236.1953" x="27" y="433.4432">setAutoPlay(value: boolean): void</text><ellipse cx="18" cy="446.3934" fill="#84BE84" rx="3" ry="3" style="stroke:#038048;stroke-width:1;"/><text fill="#000000" font-family="sans-serif" font-size="14" lengthAdjust="spacing" textLength="160.7539" x="27" y="449.7401">getAutoPlay(): boolean</text><ellipse cx="18" cy="462.6903" fill="#84BE84" rx="3" ry="3" style="stroke:#038048;stroke-width:1;"/><text fill="#000000" font-family="sans-serif" font-size="14" lengthAdjust="spacing" textLength="325.4795" x="27" y="466.037">connectMemoryCard(card: MemoryCard): void</text><ellipse cx="18" cy="478.9872" fill="#84BE84" rx="3" ry="3" style="stroke:#038048;stroke-width:1;"/><text fill="#000000" font-family="sans-serif" font-size="14" lengthAdjust="spacing" textLength="215.5303" x="27" y="482.3339">disconnectMemoryCard(): void</text><ellipse cx="18" cy="495.2841" fill="#84BE84" rx="3" ry="3" style="stroke:#038048;stroke-width:1;"/><text fill="#000000" font-family="sans-serif" font-size="14" lengthAdjust="spacing" textLength="252.376" x="27" y="498.6307">addDriver(driver: AudioDriver): void</text><ellipse cx="18" cy="511.5809" fill="#84BE84" rx="3" ry="3" style="stroke:#038048;stroke-width:1;"/><text fill="#000000" font-family="sans-serif" font-size="14" lengthAdjust="spacing" textLength="121.1602" x="27" y="514.9276">playPause(): void</text><ellipse cx="18" cy="527.8778" fill="#84BE84" rx="3" ry="3" style="stroke:#038048;stroke-width:1;"/><text fill="#000000" font-family="sans-serif" font-size="14" lengthAdjust="spacing" textLength="80.9785" x="27" y="531.2245">next(): void</text><ellipse cx="18" cy="544.1747" fill="#84BE84" rx="3" ry="3" style="stroke:#038048;stroke-width:1;"/><text fill="#000000" font-family="sans-serif" font-size="14" lengthAdjust="spacing" textLength="81.2588" x="27" y="547.5214">prev(): void</text><ellipse cx="18" cy="560.4716" fill="#84BE84" rx="3" ry="3" style="stroke:#038048;stroke-width:1;"/><text fill="#000000" font-family="sans-serif" font-size="14" lengthAdjust="spacing" textLength="89.4893" x="27" y="563.8182">info(): object</text></g><!--link AudioDriver to AudioDevice--><g class="link" data-entity-1="AudioDriver" data-entity-2="AudioDevice" data-source-line="61" data-uid="lnk7" id="link_AudioDriver_AudioDevice"><path codeLine="61" d="M362.35,185.5 C394.92,238.16 426.0628,288.5208 455.5728,336.2408" fill="none" id="AudioDriver-to-AudioDevice" style="stroke:#181818;stroke-width:1;"/><polygon fill="none" points="465.04,351.55,460.6759,333.0851,450.4697,339.3965,465.04,351.55" style="stroke:#181818;stroke-width:1;"/></g><!--link AudioController to AudioDevice--><g class="link" data-entity-1="AudioController" data-entity-2="AudioDevice" data-source-line="62" data-uid="lnk8" id="link_AudioController_AudioDevice"><path codeLine="62" d="M358.83,416.75 C370.33,416.75 363.82,416.75 375.32,416.75" fill="none" id="AudioController-to-AudioDevice" style="stroke:#181818;stroke-width:1;"/><polygon fill="none" points="393.32,416.75,375.32,410.75,375.32,422.75,393.32,416.75" style="stroke:#181818;stroke-width:1;"/></g><!--reverse link AudioController to MemoryCard--><g class="link" data-entity-1="AudioController" data-entity-2="MemoryCard" data-source-line="63" data-uid="lnk9" id="link_AudioController_MemoryCard"><path codeLine="63" d="M145.9065,583.4599 C144.9965,599.1799 145.91,602.96 147.74,618.12 C148.92,627.87 150.53,637.91 152.43,647.93" fill="none" id="AudioController-backto-MemoryCard" style="stroke:#181818;stroke-width:1;"/><polygon fill="none" points="146.6,571.48,142.2599,577.2388,145.9065,583.4599,150.2466,577.7011,146.6,571.48" style="stroke:#181818;stroke-width:1;"/><text fill="#000000" font-family="sans-serif" font-size="13" lengthAdjust="spacing" textLength="22.9785" x="148.74" y="614.1869">has</text><text fill="#000000" font-family="sans-serif" font-size="13" lengthAdjust="spacing" textLength="24.8066" x="125.7454" y="637.2289">0..1</text></g><!--link MemoryCard to AudioController--><g class="link" data-entity-1="MemoryCard" data-entity-2="AudioController" data-source-line="67" data-uid="lnk13" id="link_MemoryCard_AudioController"><path codeLine="67" d="M182.74,647.72 C182.74,623.31 182.74,603.11 182.74,577.44" fill="none" id="MemoryCard-to-AudioController" style="stroke:#181818;stroke-width:1;"/><polygon fill="#181818" points="182.74,571.44,178.74,580.44,182.74,576.44,186.74,580.44,182.74,571.44" style="stroke:#181818;stroke-width:1;"/><text fill="#000000" font-family="sans-serif" font-size="13" lengthAdjust="spacing" textLength="83.9668" x="183.74" y="614.1869">connectedTo</text><text fill="#000000" font-family="sans-serif" font-size="13" lengthAdjust="spacing" textLength="24.8066" x="158.1783" y="591.3664">0..1</text></g><!--link MemoryCard to MediaFile--><g class="link" data-entity-1="MemoryCard" data-entity-2="MediaFile" data-source-line="64" data-uid="lnk10" id="link_MemoryCard_MediaFile"><path codeLine="64" d="M182.74,875.73 C182.74,901.86 182.74,922.78 182.74,945.96" fill="none" id="MemoryCard-to-MediaFile" style="stroke:#181818;stroke-width:1;"/><polygon fill="#181818" points="182.74,951.96,186.74,942.96,182.74,946.96,178.74,942.96,182.74,951.96" style="stroke:#181818;stroke-width:1;"/><text fill="#000000" font-family="sans-serif" font-size="13" lengthAdjust="spacing" textLength="55.0278" x="183.74" y="918.4569">contains</text><text fill="#000000" font-family="sans-serif" font-size="13" lengthAdjust="spacing" textLength="23.0356" x="158.556" y="941.5394">0..*</text></g><!--link AudioController to AudioDriver--><g class="link" data-entity-1="AudioController" data-entity-2="AudioDriver" data-source-line="65" data-uid="lnk11" id="link_AudioController_AudioDriver"><path codeLine="65" d="M257,261.92 C261.14,251.99 265.09,242.08 268.74,232.37 C274.33,217.51 277.8474,207.2214 282.5974,191.5714" fill="none" id="AudioController-to-AudioDriver" style="stroke:#181818;stroke-width:1;"/><polygon fill="#181818" points="284.34,185.83,277.8985,193.2803,282.8878,190.6145,285.5537,195.6038,284.34,185.83" style="stroke:#181818;stroke-width:1;"/><text fill="#000000" font-family="sans-serif" font-size="13" lengthAdjust="spacing" textLength="52.1206" x="275.74" y="228.4369">controls</text><text fill="#000000" font-family="sans-serif" font-size="13" lengthAdjust="spacing" textLength="23.0356" x="258.6692" y="205.3395">0..*</text></g><!--link AudioDriver to AudioController--><g class="link" data-entity-1="AudioDriver" data-entity-2="AudioController" data-source-line="66" data-uid="lnk12" id="link_AudioDriver_AudioController"><path codeLine="66" d="M193.41,185.86 C186.44,195.12 180.38,204.98 175.74,215.37 C169.21,229.99 166.0241,239.8702 163.9241,256.0102" fill="none" id="AudioDriver-to-AudioController" style="stroke:#181818;stroke-width:1;"/><polygon fill="#181818" points="163.15,261.96,168.2778,253.5513,163.7951,257.0018,160.3446,252.5191,163.15,261.96" style="stroke:#181818;stroke-width:1;"/><text fill="#000000" font-family="sans-serif" font-size="13" lengthAdjust="spacing" textLength="83.9668" x="176.74" y="228.4369">connectedTo</text><text fill="#000000" font-family="sans-serif" font-size="13" lengthAdjust="spacing" textLength="24.8066" x="137.6394" y="251.1694">0..1</text></g><!--SRC=[ZLJBJjmm5DtdAwnPXT8Ws7g1X59LOj4A2UYcgYgFVG4ZZpsodOYXxR_NZpYn7TfXU-wvhtEFJGKn1bqDZAjFC78Aw5U3K8T-ZaeCEy183hijw8YnmFXAF6wivlBHuQV8WFqMsEsO-2SOZOgp47wSmoTPkO3xKXwTYlrf6Xhc-GACayzSn6bEaQnRmei5QRYIvI3y5OeMRD341bO6SlcWtcwwK_hG4yschlQmBxjIiYUKsqEf2bLI0hN0xXIEIlPAMgs4I8m7jud1orRVVqHyCC1kNKceTRbFWRLaFjzukAmMOdsQP1d0CzSpkLKYjQKplEAvpArI0eYCMdAJalBh4iRy4AtVCHigKMPreyKq7q4dYz4dukg9Q0wJ5atY79VLAaj47ukOGYVdo3ultawj4kaZ-fTJ_vjM7kDz4XR5tt-VP5ArVNOPbOmBDqcvcxsBCnzFhpQ8Rd1-WbdaGMkGmLJNai5BvUmOlUFrHy3DZI07zonoYpXyxr3FLeED01ciyjJIIkuyLrEW7OaOO0vNWisioekJzCkcBQrMpmijpiqIAWz7MTgeLI5LJlJxtH3tR8jqwNwZ0jXh60jWVStyENI_B_CVkAblV2okkWvjpi_EBZRv7uRH4p5D1dJTPQ1zs6J_A_PQMiAbMRTT-FcqCSDnJBd4nBxOh3oAKVQMtvheMCvV]--></g></svg>